<svg width="678"
     height="316"
     viewBox="0 0 928 566"
     fill="none"
     xmlns="http://www.w3.org/2000/svg">
<circle cx="52"
        cy="456"
        r="400"
        fill="#164D83" />
<circle cx="528"
        cy="696"
        r="400"
        fill="#0069C0" />
<g clip-path="url(#clip0_28_2028)">
<path d="M800.74 279.579C799.064 282.375 796.796 284.771 794.094 286.596C791.392 288.421 788.322 289.633 785.101 290.144C781.88 290.656 778.586 290.455 775.451 289.557C772.316 288.659 769.416 287.084 766.955 284.945L698.184 324.362L700.747 283.271L765.66 252.139C769.531 248.247 774.696 245.909 780.176 245.567C785.657 245.226 791.072 246.906 795.396 250.288C799.72 253.671 802.652 258.521 803.637 263.919C804.622 269.318 803.591 274.889 800.74 279.579Z"
      fill="#FFB8B8" />
<path d="M601.641 437.483C622.04 466.016 621.311 513.754 615.619 566H519.168L514.974 556.222L509.383 566H418.523C418.523 566 425.512 433.292 438.093 429.101C450.674 424.911 601.641 437.483 601.641 437.483Z"
      fill="#2F2E41" />
<path d="M519.168 139.369C492.148 139.369 470.243 117.479 470.243 90.4762C470.243 63.4737 492.148 41.5839 519.168 41.5839C546.188 41.5839 568.092 63.4737 568.092 90.4762C568.092 117.479 546.188 139.369 519.168 139.369Z"
      fill="#FFB8B8" />
<path d="M483.807 152.054L474.239 170.379L408.065 199.859L425.459 368.085L432.78 385.505L428.825 400.633L438.361 411.798C428.789 420.454 427.573 429.515 432.78 438.888L463.254 445.864C463.254 445.864 632.694 460.921 618.415 434.689C602.812 406.026 598.839 321.377 633.283 276.143C662.525 237.74 640.075 187.908 640.075 187.908L570.711 167.192L545.198 152.054L483.807 152.054Z"
      fill="#3F3D56" />
<path d="M497.447 18.8566C497.217 18.3704 496.847 17.9641 496.385 17.6897C495.922 17.4153 495.388 17.2854 494.851 17.3166C517.249 15.9777 540.842 18.5866 559.58 30.9216C564.12 33.91 568.4 37.4744 573.34 39.6422C573.573 39.7469 573.776 39.9101 573.927 40.1159C574.078 40.3218 574.174 40.5632 574.204 40.8168C574.235 41.0704 574.199 41.3276 574.101 41.5634C574.002 41.7992 573.845 42.0055 573.643 42.1624L573.1 42.5876C572.886 42.7554 572.722 42.9786 572.626 43.233C572.53 43.4874 572.506 43.7632 572.556 44.0304C572.606 44.2977 572.728 44.5462 572.91 44.7488C573.091 44.9514 573.324 45.1005 573.585 45.1798C573.856 45.2624 574.098 45.4208 574.282 45.6363C574.466 45.8518 574.585 46.1154 574.624 46.396C574.664 46.6767 574.622 46.9627 574.504 47.2205C574.386 47.4782 574.197 47.6968 573.958 47.8507L569.8 50.5363C569.591 50.6692 569.418 50.8525 569.298 51.0694C569.178 51.2864 569.114 51.53 569.113 51.7779C569.112 52.0257 569.173 52.27 569.29 52.4882C569.408 52.7065 569.579 52.8916 569.787 53.0268C570.139 53.2442 570.509 53.4316 570.892 53.5871C571.131 53.6767 571.343 53.8262 571.507 54.0213C571.671 54.2164 571.782 54.4504 571.829 54.7008C571.876 54.9512 571.858 55.2095 571.777 55.4509C571.695 55.6923 571.553 55.9086 571.363 56.079C569.562 57.6809 568.181 59.6987 567.34 61.9564C565.954 65.5576 565.705 69.4795 565.471 73.3308C564.038 67.7739 557.97 64.5029 552.238 64.1705C546.505 63.8381 540.915 65.7283 535.336 67.087C523.185 70.0378 510.565 70.5229 498.224 68.5137C502.415 76.9186 498.88 86.9438 495.322 95.6354L483.807 90.7029C467.992 81.7817 479.008 119.52 484.92 124.701C472.848 128.883 441.251 82.4615 451.416 64.8526C456.703 55.6926 452.95 43.8786 463.346 35.1911C468.44 29.8311 478.613 32.2134 483.807 27.7587C485.851 26.0054 482.735 21.3146 485.545 20.2923C486.478 19.9528 497.293 18.5143 497.447 18.8566Z"
      fill="#2F2E41" />
<path d="M580.318 171.925C589.296 211.755 612.321 304.753 635.682 324.202C637.163 325.6 638.94 326.649 640.88 327.27C722.993 347.261 749.303 296.268 749.303 296.268C749.303 296.268 727.298 285.551 726.74 264.604L682.363 278.365L643.679 191.366L637.986 186.059L637.954 186.028L580.318 171.925Z"
      fill="#3F3D56" />
<path d="M405.241 539.737C402.89 537.478 401.063 534.732 399.889 531.691C398.715 528.65 398.222 525.389 398.445 522.138C398.669 518.886 399.603 515.723 401.182 512.871C402.761 510.019 404.946 507.548 407.584 505.631L384.565 429.817L424.061 441.526L439.865 511.726C442.793 516.368 443.916 521.922 443.02 527.336C442.123 532.75 439.271 537.647 435.003 541.1C430.735 544.553 425.348 546.321 419.863 546.07C414.378 545.819 409.175 543.565 405.241 539.737V539.737Z"
      fill="#FFB8B8" />
<path d="M426.309 195.618L408.065 199.859C408.065 199.859 332.654 346.486 350.826 374.425C368.998 402.363 391.26 494.86 391.26 494.86C391.26 494.86 424.186 488.319 436.767 471.556L413.729 361.852L437.492 269.655L426.309 195.618Z"
      fill="#3F3D56" />
<path d="M772.444 413.354L771.789 177.203C771.77 172.423 769.855 167.846 766.464 164.476C763.072 161.105 758.482 159.217 753.699 159.225L575.235 159.719C570.452 159.738 565.872 161.652 562.499 165.041C559.127 168.43 557.237 173.018 557.245 177.797L557.9 413.949C557.919 418.728 559.834 423.305 563.225 426.676C566.616 430.046 571.207 431.935 575.99 431.927L754.454 431.432C759.237 431.414 763.817 429.5 767.189 426.111C770.562 422.722 772.452 418.134 772.444 413.354V413.354Z"
      fill="#E6E6E6" />
<path d="M758.557 342.065L758.135 190.245C758.118 185.769 756.324 181.482 753.148 178.325C749.972 175.169 745.673 173.4 741.194 173.408L587.819 173.833C583.339 173.85 579.05 175.642 575.891 178.816C572.732 181.99 570.963 186.287 570.97 190.763L571.553 400.906C571.57 405.383 573.364 409.669 576.54 412.826C579.717 415.982 584.016 417.751 588.495 417.743L683.508 417.48C703.46 417.402 722.567 409.419 736.637 395.28C750.706 381.142 758.589 362.004 758.557 342.065V342.065Z"
      fill="white" />
<path d="M605.393 240.096H724.986C726.889 240.096 728.714 239.341 730.06 237.996C731.406 236.651 732.162 234.827 732.162 232.925C732.162 231.023 731.406 229.199 730.06 227.855C728.714 226.51 726.889 225.754 724.986 225.754H605.393C603.49 225.754 601.665 226.51 600.319 227.855C598.974 229.199 598.218 231.023 598.218 232.925C598.218 234.827 598.974 236.651 600.319 237.996C601.665 239.341 603.49 240.096 605.393 240.096V240.096Z"
      fill="#164D83" />
<path d="M698.676 207.03H724.986C726.889 207.03 728.714 206.275 730.06 204.93C731.406 203.585 732.162 201.761 732.162 199.859C732.162 197.958 731.406 196.134 730.06 194.789C728.714 193.444 726.889 192.689 724.986 192.689H698.676C696.773 192.689 694.947 193.444 693.602 194.789C692.256 196.134 691.5 197.958 691.5 199.859C691.5 201.761 692.256 203.585 693.602 204.93C694.947 206.275 696.773 207.03 698.676 207.03Z"
      fill="#164D83" />
<path d="M605.393 273.162H724.986C726.889 273.162 728.714 272.406 730.06 271.061C731.406 269.716 732.162 267.893 732.162 265.991C732.162 264.089 731.406 262.265 730.06 260.92C728.714 259.575 726.889 258.82 724.986 258.82H605.393C603.49 258.82 601.665 259.575 600.319 260.92C598.974 262.265 598.218 264.089 598.218 265.991C598.218 267.893 598.974 269.716 600.319 271.061C601.665 272.406 603.49 273.162 605.393 273.162Z"
      fill="#164D83" />
<path d="M605.393 306.227H724.986C726.889 306.227 728.714 305.472 730.06 304.127C731.406 302.782 732.162 300.958 732.162 299.056C732.162 297.155 731.406 295.331 730.06 293.986C728.714 292.641 726.889 291.885 724.986 291.885H605.393C603.49 291.885 601.665 292.641 600.319 293.986C598.974 295.331 598.218 297.155 598.218 299.056C598.218 300.958 598.974 302.782 600.319 304.127C601.665 305.472 603.49 306.227 605.393 306.227V306.227Z"
      fill="#164D83" />
<path d="M615.07 393.354C599.301 393.354 586.518 380.579 586.518 364.821C586.518 349.063 599.301 336.288 615.07 336.288C630.839 336.288 643.622 349.063 643.622 364.821C643.622 380.579 630.839 393.354 615.07 393.354Z"
      fill="#164D83" />
<path d="M611.172 379.671C610.679 379.671 610.193 379.556 609.752 379.336C609.311 379.115 608.927 378.795 608.631 378.401L600.842 368.022C600.591 367.689 600.409 367.309 600.305 366.905C600.201 366.501 600.177 366.081 600.236 365.668C600.295 365.255 600.435 364.857 600.647 364.498C600.86 364.139 601.141 363.826 601.475 363.576C601.809 363.325 602.189 363.143 602.593 363.04C602.998 362.937 603.419 362.914 603.832 362.973C604.245 363.032 604.642 363.172 605.001 363.385C605.36 363.598 605.674 363.88 605.924 364.214L611.02 371.003L624.108 351.384C624.339 351.036 624.636 350.736 624.983 350.503C625.33 350.27 625.719 350.107 626.129 350.025C626.538 349.942 626.96 349.941 627.37 350.022C627.78 350.103 628.17 350.264 628.518 350.495C628.866 350.727 629.164 351.025 629.397 351.372C629.629 351.719 629.79 352.109 629.872 352.519C629.953 352.928 629.953 353.35 629.87 353.759C629.788 354.169 629.626 354.558 629.393 354.905L613.815 378.258C613.533 378.68 613.154 379.029 612.709 379.274C612.265 379.52 611.768 379.656 611.26 379.67C611.231 379.67 611.201 379.671 611.172 379.671Z"
      fill="white" />
<path d="M675.953 104.248C668.467 104.248 662.399 98.1836 662.399 90.7029C662.399 83.2222 668.467 77.158 675.953 77.158C683.439 77.158 689.507 83.2222 689.507 90.7029C689.507 98.1836 683.439 104.248 675.953 104.248Z"
      fill="#F2F2F2" />
<path d="M725.385 493.865C717.899 493.865 711.831 487.801 711.831 480.32C711.831 472.839 717.899 466.775 725.385 466.775C732.87 466.775 738.938 472.839 738.938 480.32C738.938 487.801 732.87 493.865 725.385 493.865Z"
      fill="#F2F2F2" />
<path d="M413.646 156.834C406.16 156.834 400.092 150.77 400.092 143.289C400.092 135.809 406.16 129.744 413.646 129.744C421.131 129.744 427.2 135.809 427.2 143.289C427.2 150.77 421.131 156.834 413.646 156.834Z"
      fill="#F2F2F2" />
</g>
<circle cx="810"
        cy="74"
        r="30"
        fill="#164D83" />
<circle cx="208.5"
        cy="71.5"
        r="71.5"
        fill="#0069C0" />
<defs>
<clipPath id="clip0_28_2028">
<rect width="456"
      height="549"
      fill="white"
      transform="matrix(-1 0 0 1 804 17)" />
</clipPath>
</defs>
</svg>